<?xml version="1.0" encoding="utf-8"?>
<!-- Generator: Adobe Illustrator 16.0.3, SVG Export Plug-In . SVG Version: 6.00 Build 0)  -->
<!DOCTYPE svg PUBLIC "-//W3C//DTD SVG 1.1//EN" "http://www.w3.org/Graphics/SVG/1.1/DTD/svg11.dtd">
<svg version="1.1" id="Layer_1" xmlns="http://www.w3.org/2000/svg" xmlns:xlink="http://www.w3.org/1999/xlink" x="0px" y="0px"
	 width="189.824px" height="55.784px" viewBox="0 0 189.824 55.784" enable-background="new 0 0 189.824 55.784"
	 xml:space="preserve">
<g>
	<g id="Topline_Logotype_colour">
		<g>
			<g>
				<path fill="#702181" d="M102.685,9.354c-4.973,0.092-9.575,1.537-9.575,1.537l-0.095,28.456l8.432,0.028l0.025-7.62
					c0.688,0.163,1.702,0.288,2.594,0.291c7.742,0.026,11.408-5.03,11.432-12.204C115.518,13.883,111.982,9.183,102.685,9.354z
					 M108.438,20.931c-0.226,3.621-3.511,5.736-6.965,3.78v-8.157c0-0.07,3.178-0.989,5.062,0.189
					C107.906,17.6,108.553,19.104,108.438,20.931z"/>
			</g>
		</g>
		<path fill="#702181" d="M64.069,10.171v21.242h-8.918V10.171h-6.567V3.119h22.053v7.053H64.069z"/>
		<path fill="#702181" d="M79.391,32.144c-7.864,0-11.432-3.973-11.432-10.824c0-7.581,4.054-11.878,11.837-11.878
			c7.864,0,11.432,4.135,11.432,11.188C91.228,27.846,87.255,32.144,79.391,32.144z M79.471,15.968
			c-2.148,0-2.837,1.907-2.837,4.743c0,4.013,1.054,4.946,3.081,4.946c2.149,0,2.838-1.784,2.838-4.662
			C82.553,16.942,81.498,15.968,79.471,15.968z"/>
		<path fill="#702181" d="M123.253,32.144c-3.486,0-5.96-1.297-5.96-6.082V1.01h8.432v22.823c0,1.297,0.365,1.704,1.42,1.704h0.973
			v5.877C127.023,31.737,125.482,32.144,123.253,32.144z"/>
		<g>
			<g>
				<path fill="#702181" d="M135.112,8.076c2.496,0,4.159-1.555,4.159-4.014c0-2.459-1.663-4.013-4.159-4.013
					c-2.493,0-4.157,1.554-4.157,4.013C130.955,6.521,132.619,8.076,135.112,8.076z M128.807,10.171v5.339
					c0.988,0.202,1.516,0.324,2.676,0.769v15.134h8.432V10.171H128.807z"/>
			</g>
		</g>
		<path fill="#702181" d="M156.736,31.413V19.616c0-2.391-0.488-3.364-1.865-3.364c-1.176,0-1.824,0.568-2.797,1.581v13.58h-8.433
			V10.171h6.365l0.528,1.866c1.944-1.784,3.77-2.595,6.688-2.595c5.23,0,7.945,2.635,7.945,8.351v13.621H156.736z"/>
		<path fill="#702181" d="M188.736,23.184h-12.77c0,1.743,1.257,2.554,4.014,2.554c2.148,0,4.984-0.243,7.416-0.811l0.65,5.96
			c-2.92,0.809-5.961,1.256-9.243,1.256c-7.661,0-11.39-3.284-11.39-10.945c0-7.5,3.93-11.756,11.35-11.756
			c7.176,0,10.094,3.203,10.094,10.58C188.857,20.752,188.816,22.09,188.736,23.184z M178.357,15.036
			c-1.662,0-2.311,1.257-2.391,3.203h4.701C180.748,16.334,180.344,15.036,178.357,15.036z"/>
	</g>
	<g id="Topline_Symbol_colour">
		<path fill="#C1D72F" d="M37.396,14.193L25.612,3.812c-0.588-0.517-1.893-0.78-2.635-0.53c0,0-14.886,5.017-14.886,5.017
			c-0.742,0.25-1.621,1.248-1.775,2.016c0,0-3.1,15.398-3.1,15.399c-0.154,0.768,0.27,2.028,0.859,2.546L15.86,38.642
			c0.587,0.518,1.893,0.781,2.635,0.53c0,0,14.883-5.017,14.885-5.017c0.741-0.249,1.62-1.246,1.774-2.015l3.1-15.398
			C38.41,15.974,37.984,14.711,37.396,14.193z"/>
		<path fill="#4CA42F" d="M17.652,18.775l-2.642-1.097l2.944,5.216c0,0,0.498-0.687,1.314-1.784L17.652,18.775z M14.997,17.677
			l0.007-0.002l-0.01-0.003L14.997,17.677z"/>
		<path fill="#4CA42F" d="M39.599,11.897c1.5-1.351,2.44-2.113,2.44-2.113l-1.691-2.46c0,0-0.001,0-0.002,0
			c-0.063,0.058-1.153,1.055-2.838,2.724c-3.361-2.961-9.791-8.626-9.791-8.626c-1.452-1.277-3.926-1.775-5.756-1.158
			c0,0-14.886,5.017-14.886,5.017c-1.83,0.615-3.5,2.509-3.88,4.407l-3.1,15.397c-0.382,1.896,0.426,4.29,1.877,5.566l11.783,10.38
			c1.451,1.279,3.928,1.777,5.759,1.158l14.882-5.015c1.831-0.614,3.5-2.509,3.882-4.406v0.001l3.1-15.398
			C41.75,15.52,40.987,13.195,39.599,11.897z M38.255,16.742l-3.1,15.398c-0.155,0.769-1.034,1.766-1.774,2.015
			c-0.002,0-14.885,5.017-14.885,5.017c-0.743,0.251-2.048-0.013-2.635-0.53L4.075,28.26c-0.589-0.518-1.013-1.778-0.859-2.546
			c0-0.001,3.1-15.399,3.1-15.399C6.47,9.546,7.349,8.549,8.091,8.299c0,0,14.886-5.017,14.886-5.017
			c0.742-0.25,2.046,0.013,2.635,0.53l9.654,8.504c-5.27,5.443-13.268,14.508-17.143,22.957c0,0-0.001-0.002-0.002-0.003
			l0.002,0.009c0.005,0.02,3.275-0.461,3.275-0.461c3.83-8.351,11.057-16.139,15.861-20.745l0.137,0.121
			C37.984,14.711,38.41,15.974,38.255,16.742z"/>
		<path fill="#702181" d="M5.746,20.2l9.262-2.526l2.946,5.22c0,0,11.956-16.502,14.904-17.091l7.493,1.516
			c0,0-16.164,14.734-22.228,27.954C18.123,35.272,6.673,20.958,5.746,20.2z"/>
	</g>
	<g>
		<path fill="#4CA42F" d="M52.283,44.62v3.95h4.566v-3.95h1.233v9.441H56.85v-4.426h-4.566v4.426h-1.219V44.62H52.283z"/>
		<path fill="#4CA42F" d="M66.258,50.616c0,2.507-1.737,3.6-3.375,3.6c-1.835,0-3.25-1.345-3.25-3.488c0-2.27,1.485-3.6,3.362-3.6
			C64.941,47.128,66.258,48.542,66.258,50.616z M60.879,50.686c0,1.485,0.854,2.605,2.059,2.605c1.177,0,2.059-1.106,2.059-2.634
			c0-1.148-0.574-2.605-2.031-2.605C61.509,48.052,60.879,49.397,60.879,50.686z"/>
		<path fill="#4CA42F" d="M67.717,49.116c0-0.699-0.014-1.273-0.056-1.834h1.079l0.056,1.092h0.042
			c0.378-0.645,1.009-1.246,2.129-1.246c0.924,0,1.625,0.561,1.919,1.358h0.028c0.21-0.378,0.477-0.673,0.756-0.882
			c0.406-0.309,0.854-0.477,1.499-0.477c0.896,0,2.227,0.588,2.227,2.941v3.992h-1.205v-3.838c0-1.303-0.476-2.088-1.471-2.088
			c-0.7,0-1.247,0.52-1.457,1.121c-0.056,0.168-0.098,0.393-0.098,0.616v4.188h-1.205v-4.062c0-1.078-0.477-1.863-1.415-1.863
			c-0.771,0-1.331,0.617-1.527,1.233c-0.07,0.183-0.098,0.392-0.098,0.603v4.09h-1.205V49.116z"/>
		<path fill="#4CA42F" d="M80.018,50.896c0.028,1.667,1.092,2.354,2.325,2.354c0.882,0,1.415-0.154,1.877-0.35l0.21,0.882
			c-0.434,0.196-1.176,0.421-2.255,0.421c-2.087,0-3.334-1.373-3.334-3.418s1.205-3.656,3.18-3.656c2.213,0,2.802,1.947,2.802,3.193
			c0,0.252-0.028,0.448-0.042,0.574H80.018z M83.632,50.013c0.014-0.783-0.322-2.002-1.709-2.002c-1.247,0-1.793,1.148-1.891,2.002
			H83.632z"/>
		<path fill="#4CA42F" d="M85.312,55.784c0.308-0.826,0.687-2.325,0.84-3.348l1.373-0.141c-0.322,1.191-0.938,2.746-1.331,3.404
			L85.312,55.784z"/>
		<path fill="#4CA42F" d="M99.204,53.642c-0.546,0.195-1.625,0.518-2.899,0.518c-1.429,0-2.605-0.363-3.53-1.246
			c-0.812-0.785-1.316-2.045-1.316-3.516c0.014-2.816,1.947-4.875,5.113-4.875c1.092,0,1.947,0.238,2.353,0.434l-0.294,0.995
			c-0.504-0.224-1.135-0.406-2.087-0.406c-2.297,0-3.796,1.429-3.796,3.796c0,2.396,1.443,3.811,3.642,3.811
			c0.798,0,1.345-0.112,1.625-0.252v-2.816h-1.919v-0.98h3.11V53.642z"/>
		<path fill="#4CA42F" d="M104.742,54.062l-0.098-0.854h-0.043c-0.378,0.532-1.106,1.009-2.072,1.009
			c-1.373,0-2.074-0.967-2.074-1.947c0-1.639,1.457-2.535,4.076-2.521v-0.141c0-0.56-0.153-1.568-1.54-1.568
			c-0.63,0-1.289,0.196-1.765,0.504l-0.281-0.812c0.561-0.363,1.373-0.602,2.228-0.602c2.073,0,2.577,1.414,2.577,2.773v2.535
			c0,0.588,0.028,1.162,0.112,1.625H104.742z M104.56,50.602c-1.345-0.028-2.871,0.21-2.871,1.526c0,0.799,0.532,1.178,1.163,1.178
			c0.882,0,1.441-0.561,1.639-1.135c0.041-0.127,0.069-0.267,0.069-0.393V50.602z"/>
		<path fill="#4CA42F" d="M107.578,49.397c0-0.799-0.015-1.485-0.057-2.115h1.078l0.043,1.33h0.056
			c0.308-0.91,1.051-1.484,1.877-1.484c0.14,0,0.238,0.014,0.351,0.042v1.163c-0.127-0.029-0.252-0.043-0.42-0.043
			c-0.869,0-1.485,0.658-1.653,1.583c-0.028,0.169-0.056,0.364-0.056,0.575v3.613h-1.219V49.397z"/>
		<path fill="#4CA42F" d="M117.853,44.116v8.194c0,0.603,0.014,1.288,0.056,1.751h-1.106l-0.056-1.177h-0.028
			c-0.378,0.757-1.204,1.331-2.312,1.331c-1.639,0-2.899-1.387-2.899-3.446c-0.015-2.255,1.387-3.642,3.04-3.642
			c1.036,0,1.736,0.49,2.045,1.037h0.027v-4.049H117.853z M116.619,50.042c0-0.154-0.014-0.365-0.056-0.52
			c-0.183-0.783-0.854-1.428-1.778-1.428c-1.275,0-2.031,1.12-2.031,2.619c0,1.373,0.672,2.508,2.003,2.508
			c0.826,0,1.583-0.547,1.807-1.471c0.042-0.169,0.056-0.337,0.056-0.533V50.042z"/>
		<path fill="#4CA42F" d="M120.488,50.896c0.028,1.667,1.093,2.354,2.326,2.354c0.882,0,1.414-0.154,1.877-0.35l0.209,0.882
			c-0.434,0.196-1.176,0.421-2.254,0.421c-2.088,0-3.334-1.373-3.334-3.418s1.204-3.656,3.18-3.656c2.213,0,2.801,1.947,2.801,3.193
			c0,0.252-0.027,0.448-0.041,0.574H120.488z M124.103,50.013c0.015-0.783-0.322-2.002-1.709-2.002
			c-1.247,0-1.793,1.148-1.891,2.002H124.103z"/>
		<path fill="#4CA42F" d="M126.714,49.116c0-0.699-0.014-1.273-0.056-1.834h1.092l0.07,1.12h0.028
			c0.336-0.644,1.12-1.274,2.241-1.274c0.938,0,2.395,0.561,2.395,2.885v4.049h-1.232v-3.908c0-1.092-0.406-2.003-1.568-2.003
			c-0.812,0-1.443,0.574-1.652,1.261c-0.057,0.154-0.084,0.364-0.084,0.574v4.076h-1.233V49.116z"/>
		<path fill="#4CA42F" d="M141.205,54.062l-0.098-0.854h-0.041c-0.379,0.532-1.107,1.009-2.074,1.009
			c-1.373,0-2.072-0.967-2.072-1.947c0-1.639,1.457-2.535,4.076-2.521v-0.141c0-0.56-0.154-1.568-1.541-1.568
			c-0.631,0-1.289,0.196-1.766,0.504l-0.279-0.812c0.561-0.363,1.372-0.602,2.227-0.602c2.073,0,2.578,1.414,2.578,2.773v2.535
			c0,0.588,0.027,1.162,0.111,1.625H141.205z M141.023,50.602c-1.345-0.028-2.871,0.21-2.871,1.526c0,0.799,0.532,1.178,1.162,1.178
			c0.883,0,1.443-0.561,1.639-1.135c0.043-0.127,0.07-0.267,0.07-0.393V50.602z"/>
		<path fill="#4CA42F" d="M144.041,49.116c0-0.699-0.014-1.273-0.056-1.834h1.093l0.07,1.12h0.027
			c0.336-0.644,1.121-1.274,2.242-1.274c0.938,0,2.395,0.561,2.395,2.885v4.049h-1.232v-3.908c0-1.092-0.406-2.003-1.568-2.003
			c-0.812,0-1.443,0.574-1.653,1.261c-0.056,0.154-0.084,0.364-0.084,0.574v4.076h-1.233V49.116z"/>
		<path fill="#4CA42F" d="M157.576,44.116v8.194c0,0.603,0.014,1.288,0.055,1.751h-1.105l-0.057-1.177h-0.027
			c-0.379,0.757-1.205,1.331-2.312,1.331c-1.639,0-2.898-1.387-2.898-3.446c-0.015-2.255,1.387-3.642,3.039-3.642
			c1.037,0,1.737,0.49,2.045,1.037h0.028v-4.049H157.576z M156.343,50.042c0-0.154-0.015-0.365-0.056-0.52
			c-0.183-0.783-0.855-1.428-1.779-1.428c-1.275,0-2.031,1.12-2.031,2.619c0,1.373,0.672,2.508,2.004,2.508
			c0.826,0,1.582-0.547,1.807-1.471c0.041-0.169,0.056-0.337,0.056-0.533V50.042z"/>
		<path fill="#4CA42F" d="M162.626,44.747c0.532-0.113,1.373-0.197,2.228-0.197c1.219,0,2.003,0.211,2.592,0.688
			c0.49,0.363,0.783,0.924,0.783,1.666c0,0.91-0.602,1.709-1.596,2.073v0.028c0.896,0.225,1.946,0.967,1.946,2.367
			c0,0.812-0.321,1.429-0.798,1.891c-0.658,0.603-1.723,0.883-3.264,0.883c-0.841,0-1.485-0.057-1.892-0.111V44.747z
			 M163.845,48.612h1.106c1.289,0,2.045-0.672,2.045-1.582c0-1.107-0.84-1.541-2.072-1.541c-0.561,0-0.883,0.041-1.079,0.084V48.612
			z M163.845,53.138c0.238,0.041,0.589,0.055,1.022,0.055c1.261,0,2.424-0.461,2.424-1.834c0-1.289-1.107-1.821-2.438-1.821h-1.009
			V53.138z"/>
		<path fill="#4CA42F" d="M175.729,52.212c0,0.701,0.014,1.317,0.057,1.85h-1.093l-0.07-1.106h-0.028
			c-0.322,0.546-1.036,1.261-2.24,1.261c-1.064,0-2.34-0.588-2.34-2.97v-3.964h1.232v3.754c0,1.289,0.393,2.156,1.514,2.156
			c0.826,0,1.4-0.574,1.625-1.12c0.069-0.183,0.111-0.406,0.111-0.63v-4.16h1.232V52.212z"/>
		<path fill="#4CA42F" d="M178.984,45.377c0.014,0.42-0.295,0.757-0.785,0.757c-0.434,0-0.742-0.337-0.742-0.757
			c0-0.435,0.322-0.771,0.771-0.771C178.689,44.606,178.984,44.942,178.984,45.377z M177.611,54.062v-6.779h1.232v6.779H177.611z"/>
		<path fill="#4CA42F" d="M180.711,44.116h1.232v9.945h-1.232V44.116z"/>
		<path fill="#4CA42F" d="M189.768,44.116v8.194c0,0.603,0.014,1.288,0.057,1.751h-1.107l-0.056-1.177h-0.028
			c-0.378,0.757-1.204,1.331-2.311,1.331c-1.639,0-2.9-1.387-2.9-3.446c-0.014-2.255,1.387-3.642,3.04-3.642
			c1.036,0,1.737,0.49,2.046,1.037h0.027v-4.049H189.768z M188.535,50.042c0-0.154-0.014-0.365-0.057-0.52
			c-0.182-0.783-0.854-1.428-1.778-1.428c-1.274,0-2.031,1.12-2.031,2.619c0,1.373,0.673,2.508,2.003,2.508
			c0.826,0,1.583-0.547,1.807-1.471c0.043-0.169,0.057-0.337,0.057-0.533V50.042z"/>
	</g>
</g>
</svg>
