<?xml version="1.0" encoding="utf-8"?>
<!-- Generator: Adobe Illustrator 15.1.0, SVG Export Plug-In . SVG Version: 6.00 Build 0)  -->
<!DOCTYPE svg PUBLIC "-//W3C//DTD SVG 1.1//EN" "http://www.w3.org/Graphics/SVG/1.1/DTD/svg11.dtd">
<svg version="1.1" id="Layer_1" xmlns="http://www.w3.org/2000/svg" xmlns:xlink="http://www.w3.org/1999/xlink" x="0px" y="0px"
	 width="340px" height="36.979px" viewBox="0 0 340 36.979" enable-background="new 0 0 340 36.979" xml:space="preserve">
<g>
	<path fill="#702181" d="M89.437,8.148c-4.331,0.08-8.338,1.339-8.338,1.339l-0.084,24.787l7.345,0.021l0.023-6.639
		c0.6,0.143,1.482,0.253,2.259,0.257c6.743,0.021,9.936-4.385,9.956-10.631C100.615,12.094,97.536,7.999,89.437,8.148 M94.449,18.23
		c-0.197,3.155-3.058,4.997-6.066,3.295v-7.106c0-0.062,2.766-0.859,4.409,0.166C93.986,15.329,94.55,16.64,94.449,18.23"/>
	<polygon fill="#702181" points="55.804,8.86 55.804,27.362 48.036,27.362 48.036,8.86 42.317,8.86 42.317,2.718 61.523,2.718 
		61.523,8.86 	"/>
	<path fill="#702181" d="M69.148,27.996c-6.85,0-9.957-3.458-9.957-9.427c0-6.604,3.53-10.345,10.312-10.345
		c6.851,0,9.957,3.601,9.957,9.743C79.459,24.257,75.999,27.996,69.148,27.996 M69.22,13.907c-1.87,0-2.472,1.66-2.472,4.133
		c0,3.496,0.919,4.309,2.683,4.309c1.872,0,2.474-1.554,2.474-4.062C71.904,14.758,70.984,13.907,69.22,13.907"/>
	<path fill="#702181" d="M107.354,27.996c-3.038,0-5.19-1.129-5.19-5.296V0.88h7.344v19.88c0,1.13,0.318,1.481,1.236,1.481h0.848
		v5.12C110.637,27.644,109.295,27.996,107.354,27.996"/>
	<path fill="#702181" d="M117.683,7.036c2.173,0,3.621-1.354,3.621-3.496c0-2.144-1.448-3.497-3.621-3.497
		c-2.172,0-3.622,1.354-3.622,3.497C114.061,5.681,115.511,7.036,117.683,7.036 M112.19,8.86v4.648
		c0.86,0.179,1.32,0.283,2.331,0.671v13.183h7.345V8.86H112.19z"/>
	<path fill="#702181" d="M136.515,27.362V17.085c0-2.081-0.423-2.929-1.624-2.929c-1.021,0-1.588,0.494-2.434,1.378v11.827h-7.348
		V8.86h5.545l0.459,1.624c1.694-1.552,3.284-2.259,5.826-2.259c4.556,0,6.92,2.295,6.92,7.271v11.864L136.515,27.362L136.515,27.362
		z"/>
	<path fill="#702181" d="M164.389,20.193h-11.122c0,1.521,1.094,2.227,3.495,2.227c1.871,0,4.342-0.21,6.46-0.705l0.564,5.192
		c-2.54,0.7-5.19,1.09-8.05,1.09c-6.674,0-9.922-2.858-9.922-9.532c0-6.53,3.427-10.237,9.889-10.237
		c6.248,0,8.791,2.788,8.791,9.214C164.494,18.075,164.458,19.242,164.389,20.193 M155.349,13.099c-1.448,0-2.014,1.093-2.082,2.788
		h4.095C157.431,14.228,157.079,13.099,155.349,13.099"/>
	<g>
		<path fill="#C1D72F" d="M205.684,16.872c-0.154-3.332-0.345-7.352-0.308-10.836h-0.115c-0.841,3.14-1.913,6.622-3.062,9.878
			l-3.75,11.178h-3.639l-3.444-11.024c-0.995-3.292-1.914-6.812-2.604-10.029h-0.076c-0.115,3.369-0.27,7.467-0.459,10.987
			l-0.576,10.373h-4.399l1.725-25.802h6.198l3.369,10.376c0.919,3.022,1.724,6.086,2.375,8.954h0.114
			c0.688-2.793,1.569-5.971,2.562-8.993l3.562-10.337h6.126l1.49,25.802h-4.594L205.684,16.872z"/>
		<path fill="#C1D72F" d="M232.05,21.811c0,2.218,0.076,4.057,0.152,5.587h-4.135l-0.229-2.831h-0.076
			c-0.803,1.34-2.641,3.251-5.972,3.251c-3.406,0-6.51-2.025-6.51-8.114V8.756h4.707V18.9c0,3.101,0.998,5.091,3.484,5.091
			c1.875,0,3.103-1.34,3.6-2.524c0.152-0.421,0.269-0.919,0.269-1.457V8.756h4.71V21.811z"/>
		<path fill="#C1D72F" d="M237.025,14.765c0-2.525-0.039-4.324-0.151-6.01h4.096l0.152,3.561h0.151
			c0.92-2.642,3.104-3.981,5.095-3.981c0.459,0,0.727,0.038,1.11,0.116v4.44c-0.386-0.079-0.806-0.153-1.379-0.153
			c-2.26,0-3.791,1.453-4.213,3.561c-0.074,0.422-0.152,0.918-0.152,1.454v9.646h-4.709V14.765L237.025,14.765z"/>
		<path fill="#C1D72F" d="M256.865,3.434v5.321h4.48v3.521h-4.48v8.229c0,2.259,0.613,3.447,2.412,3.447
			c0.805,0,1.416-0.118,1.839-0.23l0.075,3.602c-0.688,0.267-1.914,0.459-3.406,0.459c-1.723,0-3.178-0.577-4.057-1.531
			c-0.998-1.071-1.457-2.757-1.457-5.207v-8.768h-2.679V8.756h2.679V4.542L256.865,3.434z"/>
		<path fill="#C1D72F" d="M275.564,27.397l-0.307-2.064h-0.113c-1.146,1.453-3.103,2.484-5.513,2.484
			c-3.752,0-5.858-2.717-5.858-5.548c0-4.711,4.175-7.082,11.064-7.045v-0.308c0-1.226-0.498-3.253-3.789-3.253
			c-1.838,0-3.754,0.572-5.017,1.378l-0.92-3.062c1.379-0.845,3.791-1.646,6.738-1.646c5.973,0,7.693,3.791,7.693,7.849v6.736
			c0,1.686,0.078,3.333,0.27,4.479L275.564,27.397L275.564,27.397z M274.953,18.287c-3.33-0.076-6.509,0.648-6.509,3.482
			c0,1.838,1.188,2.68,2.681,2.68c1.876,0,3.255-1.227,3.675-2.564c0.116-0.346,0.153-0.727,0.153-1.031V18.287z"/>
		<path fill="#C1D72F" d="M301.434,8.756c-0.078,1.264-0.151,2.794-0.151,5.359V24.68c0,3.901-0.806,6.697-2.757,8.461
			c-1.953,1.721-4.633,2.258-7.196,2.258c-2.375,0-4.9-0.498-6.511-1.491l1.033-3.562c1.188,0.688,3.18,1.417,5.438,1.417
			c3.062,0,5.358-1.609,5.358-5.631v-1.605h-0.076c-1.071,1.646-2.985,2.757-5.438,2.757c-4.633,0-7.924-3.828-7.924-9.111
			c0-6.126,3.979-9.839,8.46-9.839c2.833,0,4.519,1.379,5.396,2.91h0.078l0.189-2.487H301.434z M296.57,16.219
			c0-0.42-0.035-0.88-0.151-1.264c-0.497-1.724-1.838-3.022-3.828-3.022c-2.641,0-4.594,2.297-4.594,6.086
			c0,3.18,1.606,5.743,4.557,5.743c1.76,0,3.29-1.15,3.828-2.836c0.113-0.494,0.188-1.146,0.188-1.685V16.219z"/>
		<path fill="#C1D72F" d="M306.234,0.218h4.746V11.32h0.078c0.573-0.879,1.34-1.606,2.334-2.145
			c0.918-0.535,2.028-0.843,3.215-0.843c3.18,0,6.511,2.106,6.511,8.079v10.984h-4.71v-10.45c0-2.717-0.995-4.746-3.6-4.746
			c-1.836,0-3.139,1.226-3.636,2.643c-0.153,0.384-0.192,0.881-0.192,1.417v11.14h-4.746V0.218L306.234,0.218z"/>
		<path fill="#C1D72F" d="M327.673,23.07c1.071,0.652,3.103,1.344,4.786,1.344c2.063,0,2.983-0.845,2.983-2.068
			c0-1.265-0.766-1.912-3.062-2.718c-3.637-1.265-5.167-3.254-5.128-5.438c0-3.291,2.718-5.856,7.044-5.856
			c2.063,0,3.864,0.537,4.938,1.108l-0.918,3.332c-0.803-0.459-2.297-1.071-3.944-1.071c-1.685,0-2.603,0.804-2.603,1.954
			c0,1.186,0.881,1.759,3.254,2.603c3.369,1.227,4.939,2.948,4.979,5.704c0,3.369-2.643,5.819-7.58,5.819
			c-2.259,0-4.288-0.538-5.666-1.305L327.673,23.07z"/>
	</g>
</g>
<g>
	<g>
		<path fill="#C1D72F" d="M32.568,12.366L22.306,3.323c-0.513-0.451-1.647-0.681-2.295-0.464c0,0-12.962,4.371-12.963,4.371
			C6.402,7.448,5.636,8.317,5.501,8.988c0,0-2.698,13.409-2.698,13.411c-0.135,0.668,0.235,1.765,0.747,2.216l10.263,9.045
			c0.513,0.45,1.65,0.68,2.295,0.46c0,0,12.959-4.367,12.962-4.369c0.646-0.216,1.412-1.085,1.547-1.753l2.699-13.412
			C33.452,13.917,33.081,12.817,32.568,12.366"/>
	</g>
	<path fill="#4CA42F" d="M19.125,0.233L6.164,4.603C4.568,5.14,3.116,6.788,2.784,8.44l-2.7,13.41
		c-0.333,1.651,0.371,3.735,1.635,4.849l10.262,9.038c1.264,1.115,3.42,1.552,5.016,1.013l12.958-4.369
		c1.595-0.535,3.049-2.185,3.381-3.838l0,0l2.7-13.411c0.332-1.647-0.371-3.732-1.633-4.847L24.139,1.243
		C22.875,0.13,20.72-0.304,19.125,0.233 M13.813,33.659L3.55,24.615c-0.512-0.451-0.882-1.548-0.747-2.216
		c0-0.002,2.698-13.411,2.698-13.411c0.135-0.671,0.9-1.539,1.547-1.757c0.001,0,12.963-4.371,12.963-4.371
		c0.646-0.217,1.782,0.013,2.295,0.464l10.262,9.043c0.514,0.45,0.884,1.551,0.749,2.219l-2.699,13.412
		c-0.135,0.668-0.9,1.537-1.547,1.753c-0.002,0.002-12.962,4.369-12.962,4.369C15.463,34.339,14.325,34.11,13.813,33.659"/>
	<path fill="#4CA42F" d="M35.139,6.382c0,0-0.001,0-0.003,0c-0.25,0.229-14.118,12.933-19.35,24.343c0,0-0.002-0.002-0.003-0.002
		c0,0.002,0.001,0.006,0.003,0.008c0.004,0.018,2.852-0.4,2.852-0.4C23.917,18.815,36.611,8.524,36.611,8.524L35.139,6.382z"/>
	<path fill="#4CA42F" d="M13.062,15.399l0.005-0.002l-0.008-0.004L13.062,15.399z M15.375,16.356l-2.301-0.957l2.562,4.545
		c0,0,0.433-0.601,1.146-1.556L15.375,16.356z"/>
	<path fill="#702181" d="M5.005,17.598l8.065-2.202l2.566,4.549c0,0,10.412-14.374,12.98-14.889l6.524,1.321
		c0,0-14.077,12.833-19.356,24.347C15.785,30.724,5.812,18.258,5.005,17.598"/>
</g>
</svg>
